<?xml version="1.0" encoding="iso-8859-1"?>
<!-- Generator: Adobe Illustrator 19.0.0, SVG Export Plug-In . SVG Version: 6.00 Build 0)  -->
<svg version="1.1" id="Capa_1" xmlns="http://www.w3.org/2000/svg" xmlns:xlink="http://www.w3.org/1999/xlink" x="0px" y="0px"
	 viewBox="0 0 512 512" style="enable-background:new 0 0 512 512;" xml:space="preserve">
<g>
	<g>
		<g>
			<path d="M394.667,149.333h-32v-22.413c24.314-4.956,42.667-26.5,42.667-52.254c0-29.406-23.927-53.333-53.333-53.333
				c-11.229,0-21.844,3.458-30.698,9.781C309.938,12.219,289.281,0,266.667,0c-14.885,0-29.24,5.313-40.656,14.844
				C213.177,5.208,197.646,0,181.333,0c-29.25,0-55.26,16.99-67.385,43.156c-39.052-5.229-71.281,25.823-71.281,63.51
				c0,27.775,17.888,51.233,42.667,60.068v218.339c0,25.573-6.042,51.167-17.479,74.031C65.333,464.156,64,469.813,64,475.448
				C64,495.604,80.396,512,100.552,512h246.896C367.604,512,384,495.604,384,475.448c0-5.635-1.333-11.292-3.854-16.354
				c-8.409-16.802-13.84-35.094-16.159-53.76h30.68c41.167,0,74.667-33.5,74.667-74.667V224
				C469.333,182.833,435.833,149.333,394.667,149.333z M64,106.667C64,83.135,83.135,64,106.667,64
				c3.344,0,6.885,0.542,11.135,1.698c5.573,1.531,11.25-1.615,12.969-7.063c7.094-22.313,27.406-37.302,50.563-37.302
				c14.177,0,27.531,5.521,37.604,15.542c2.104,2.083,5.104,3.385,7.927,3.094c2.958-0.104,5.74-1.448,7.667-3.688
				c8.198-9.5,19.917-14.948,32.135-14.948c18.823,0,35.604,12.771,40.813,31.052c1.115,3.906,4.365,6.844,8.365,7.573
				c4.094,0.75,8.083-0.896,10.479-4.167c6.146-8.344,15.51-13.125,25.677-13.125c17.646,0,32,14.354,32,32
				c0,17.646-14.354,32-32,32H246.431c-0.273-3.298-1.881-6.441-4.931-8.281c-5.063-3.052-11.615-1.427-14.646,3.625
				c-13.906,23.125-43.083,33.01-68.823,20.375c-5.115-2.51-11.333-0.521-14.063,4.49c-7.531,13.854-21.823,22.458-37.302,22.458
				C83.135,149.333,64,130.198,64,106.667z M362.667,213.333h32c5.885,0,10.667,4.781,10.667,10.667v106.667
				c0,5.885-4.781,10.667-10.667,10.667h-32V213.333z M347.448,490.667H100.552c-8.396,0-15.219-6.823-15.219-15.219
				c0-2.354,0.552-4.708,1.604-6.813c12.906-25.792,19.729-54.688,19.729-83.563V170.667c20.073,0,38.781-9.552,50.781-25.438
				c26.909,9.392,55.828,1.736,75.431-17.229h108.454v257.073c0,28.875,6.823,57.771,19.729,83.552
				c1.052,2.115,1.604,4.469,1.604,6.823C362.667,483.844,355.844,490.667,347.448,490.667z M448,330.667
				C448,360.073,424.073,384,394.667,384h-32v-21.333h32c17.646,0,32-14.354,32-32V224c0-17.646-14.354-32-32-32h-32v-21.333h32
				C424.073,170.667,448,194.594,448,224V330.667z"/>
			<path d="M160,192c-5.896,0-10.667,4.771-10.667,10.667V416c0,5.896,4.771,10.667,10.667,10.667s10.667-4.771,10.667-10.667
				V202.667C170.667,196.771,165.896,192,160,192z"/>
			<path d="M224,192c-5.896,0-10.667,4.771-10.667,10.667V416c0,5.896,4.771,10.667,10.667,10.667s10.667-4.771,10.667-10.667
				V202.667C234.667,196.771,229.896,192,224,192z"/>
			<path d="M288,192c-5.896,0-10.667,4.771-10.667,10.667V416c0,5.896,4.771,10.667,10.667,10.667s10.667-4.771,10.667-10.667
				V202.667C298.667,196.771,293.896,192,288,192z"/>
		</g>
	</g>
</g>
<g>
</g>
<g>
</g>
<g>
</g>
<g>
</g>
<g>
</g>
<g>
</g>
<g>
</g>
<g>
</g>
<g>
</g>
<g>
</g>
<g>
</g>
<g>
</g>
<g>
</g>
<g>
</g>
<g>
</g>
</svg>
