<svg height="512" viewBox="0 0 128 128" width="512" xmlns="http://www.w3.org/2000/svg"><path d="m119.229 78.121a11.691 11.691 0 0 0 5.471-6.545c2.416-7.281-1.654-17.714-10.888-27.906-9.854-10.878-23.729-19.67-39.069-24.761s-31.72-6.333-46.121-3.5c-13.495 2.648-22.994 8.577-25.41 15.86-3.5 10.549 7.705 21.019 34.21 31.948a83.661 83.661 0 0 0 -18.3 7.542c-11.974 6.765-19.122 15.386-19.122 23.057 0 13.622 20.935 20.245 64 20.245s64-6.623 64-20.245c0-5.088-3.16-10.591-8.771-15.695zm-27.94-26.267c-.618-1.708-.358-8.247 3.037-18.48.126-.379.262-.733.391-1.1q2.618 1.68 5.012 3.458c-3.347 9.896-6.948 15.139-8.44 16.122zm-14.976-28.686c-.36 1.29-.742 2.578-1.163 3.845-3.4 10.232-7.095 15.629-8.613 16.63-.618-1.71-.358-8.248 3.037-18.481.42-1.268.884-2.529 1.365-3.777.9.269 1.8.547 2.7.846s1.793.615 2.674.937zm-25.569-5.486c-.117.374-.22.739-.346 1.118-3.398 10.233-7.098 15.63-8.613 16.63-.608-1.68-.36-8.037 2.874-17.973 1.985.003 4.017.079 6.085.225zm-7.864 43.959c-26.671-10.429-39.239-20.55-36.346-29.271 2.466-7.443 16.175-14.057 34.431-14.834-1.6 5.234-5.488 19.69-.342 21.4a2.935 2.935 0 0 0 .923.151c1.874 0 3.9-1.826 6.155-5.542a69.6 69.6 0 0 0 6.02-13.645c.212-.643.394-1.265.586-1.895a93.528 93.528 0 0 1 13.248 2.429c-.458 1.2-.9 2.411-1.3 3.627-.715 2.155-6.815 21.115-.877 23.085a2.779 2.779 0 0 0 .885.144c5.677 0 11.533-17.127 12.213-19.176.4-1.214.771-2.448 1.122-3.685a93.535 93.535 0 0 1 12.069 5.971c-.223.62-.45 1.229-.663 1.872-.715 2.156-6.816 21.116-.877 23.086a2.908 2.908 0 0 0 .923.152c1.874 0 3.9-1.826 6.155-5.542a66.627 66.627 0 0 0 5.442-11.968c14.169 11.535 21.2 25.028 18.731 32.471a8.617 8.617 0 0 1 -5.052 5.211 61.629 61.629 0 0 0 -7.447-4.926c-12.779-7.219-28.717-11.195-44.879-11.195a98.684 98.684 0 0 0 -20.841 2.222 1.783 1.783 0 0 0 -.279-.142zm47.2 23.978c-1.125-1.428-2.937-7.715-2.937-18.5 0-.4.016-.778.022-1.17q3.014.769 5.847 1.7c-.061 10.456-1.827 16.567-2.933 17.97zm-23.142-18.5c0 10.781-1.812 17.068-2.937 18.5-1.125-1.428-2.938-7.715-2.938-18.5 0-1.332.042-2.676.106-4.015q2.832-.084 5.663 0c.068 1.341.105 2.684.105 4.019zm-26.079 0c0 10.781-1.812 17.068-2.937 18.5-1.106-1.4-2.872-7.514-2.932-17.963 1.884-.622 3.837-1.19 5.846-1.7.005.389.022.768.022 1.167zm23.141 43.442c-39.579 0-60.5-5.79-60.5-16.745 0-7.842 10.925-18.435 28.008-24.921.133 5.47.992 20.416 6.413 20.416 6.257 0 6.437-19.917 6.437-22.188 0-.677-.023-1.327-.039-1.985a93.473 93.473 0 0 1 13.338-1.866c-.056 1.285-.095 2.573-.095 3.851 0 2.271.181 22.188 6.438 22.188s6.437-19.917 6.437-22.188c0-1.281-.038-2.568-.095-3.851a93.583 93.583 0 0 1 13.337 1.865c-.015.659-.037 1.309-.037 1.986 0 2.271.18 22.188 6.437 22.188 5.421 0 6.28-14.946 6.413-20.416 17.083 6.486 28.008 17.079 28.008 24.921 0 10.955-20.921 16.745-60.5 16.745z"/></svg>