<?xml version="1.0" encoding="utf-8"?>
<!-- Svg Vector Icons : http://www.onlinewebfonts.com/icon -->
<!DOCTYPE svg PUBLIC "-//W3C//DTD SVG 1.1//EN" "http://www.w3.org/Graphics/SVG/1.1/DTD/svg11.dtd">
<svg version="1.1" xmlns="http://www.w3.org/2000/svg" xmlns:xlink="http://www.w3.org/1999/xlink" x="0px" y="0px" viewBox="0 0 1000 1000" enable-background="new 0 0 1000 1000" xml:space="preserve">
<metadata> Svg Vector Icons : http://www.onlinewebfonts.com/icon </metadata>
<g><g><g><path d="M81.2,772.5c9.9,24.4,39.8,44.4,66.1,44.9l528.5,11.4c26.3,0.5,62.9-13.8,81.7-32.3l173.1-169.4c18.8-18.3,34.1-50.2,34.1-70.9c0-20.7,0-37.6,0-37.6l12.6-26.8c7-14.8,12.7-48.1,12.7-74.4V331l-17.2,14.7L914.5,275c-17.7-21.5-34.3-21.5-42.6-19.5c-8.3,2-23.2,9.3-29.4,36.5l-2.8,12.2l-24.5-89.6c-5.2-19-16.9-33.1-33.1-39.6c-16.1-6.5-34.4-4.5-51.3,5.6l-92.4,55.2c-21.2-27.7-61-39.6-93.7-26.2l-104.9,43c-8.3-13.6-20.1-22.8-34.5-26c-16.9-3.7-34.4,1.4-49.4,14.3l-48.8,42.2l-104.5-30.4c-18.4-6.3-37.1-4.6-52.7,4.6c-15.6,9.3-25.9,25-29.2,44.1l-16.5,97.4l-34-10.7c-26.5-8.3-40.7,0.8-46.7,7c-6.1,6.2-14.9,20.4-6.1,46.8l35.7,107.3c-43.7-17.3-27.9-55.9-27.9-55.9C-20.1,508.1,46.7,687.6,81.2,772.5z M99.7,557.4c-7.1-0.3-13.4-0.8-19.2-1.5l-2.7-8.1l33.1-24.6c17.1-12.7,45.1-6.5,62.4,13.8l19.3,22.8C151.3,558.8,118.3,557.9,99.7,557.4z M198.7,530.2l-0.3-0.4l1.3-0.4L198.7,530.2z M182.4,395.6c-3.5-11.4-2.3-21.6,3.3-28.7c5.5-7.1,15.2-10.7,27.5-10.1l177.4,1.7c-1.5,2.9-3.4,5.8-6,8.3c-3.5,3.4-11,8.8-21.5,7.7c-54-5.6-62.7,4.4-66.4,8.7c-3.2,3.7-5,8.2-5.1,12.8c-4.1,10.7-24.6,38-39.7,38c-12.6,0-23.7,4.5-32.1,12.9c-7.9,7.9-12,18-14.1,26.5L182.4,395.6z M224.5,560.7l-10.3-12.1l127.2-90c22.3-15.8,56.3-13,75.7,6.2l104.4,103.2C426.3,565.6,312.4,562.8,224.5,560.7z M418.9,436.6l83.8-111.4c7.4-10,17.9-15.9,29.3-16.8c11.5-1,22.7,3.3,31.6,11.9l83.6,80.3c-6.3-0.6-13-0.5-20.2,1.1l-196.2,43.5C427.2,442.1,423.2,439.2,418.9,436.6z M552.4,568.6l1.8-1.9L451.5,465.2L632.2,425c11.4-2.5,20.6-0.9,26,4.6c5.4,5.5,6.9,14.8,4.2,26.1l-27.3,114.8C611.5,570,583.4,569.3,552.4,568.6z M865.7,297.5c2.4-10.4,6.8-17.5,11.7-18.7c5-1.2,12,3.3,18.8,11.5l58.5,70.9l-129,110L865.7,297.5z M553.8,231.7c25.1-10.3,56.3,0.5,69.7,24l35.9,63.1c-0.3,7.7,0.4,15.7,2.2,22.6c-9.2,1.5-15.8,9.9-14.9,19.3c0.9,9.2,8.7,16.2,17.7,16.2c0.6,0,1.2,0,1.8-0.1c4.9-0.5,21.5-3,29.5-16.3c4.5-7.6,5-16.6,1.2-25.5c-1.6-3.8-2.8-13.1-1.5-20.7c5.6-1.6,19.3-0.4,25.5,0.1c2.8,0.3,5.6,0.5,7.9,0.6c19.8,1.1,30.1-7.7,35.7-16.7c3.8,2.9,8,7.4,9.2,11.9c0.5,1.9,0.6,3.4-2.3,6c-7.4,6.6-8.1,17.9-1.5,25.2c6.5,7.4,17.8,8.1,25.2,1.5c14.1-12.5,18.3-30.2,11.3-47.5c-8.2-20.2-30.5-36.4-48.3-35.8c-11.2,0.5-20.1,7.4-23.3,18c-0.2,0.8-0.4,1.3-0.4,1.6c-0.6,0.1-1.8,0.2-3.5,0.1c-2.1-0.1-4.4-0.3-6.9-0.5c-15.2-1.3-40.5-3.3-54.2,10L651.1,256l92-54.9c10.4-6.2,21.1-7.6,30.2-4c9.1,3.7,15.9,12.1,19,23.8l36.2,132.5L795.4,497l-88.2,75.2c0,0-17.9-0.4-47.6-1.1l26.1-109.9c4.6-19.7,0.9-36.7-10.4-48.3c-2.5-2.5-5.3-4.5-8.3-6.3l10-10.5l-96.8-93c-14-13.4-31.9-20-50.1-18.5c-18.3,1.5-34.8,10.8-46.4,26.3l-10.2,13.6L450.5,274L553.8,231.7z M371.6,259c9.1-7.9,19.3-11.1,28.7-9c9.4,2.1,17.3,9.3,22.3,20.2l34.5,76.1l-61,81c-23.3-5.7-49.1-2-68.6,11.8l-108.9,77.1l-2.7-9c1.7,0.5,3.4,1.1,5.3,1.1c0,0,0,0,0,0c9.9-0.1,17.8-8.1,17.8-18c0-3.3,1.4-13.8,6-18.4c1.1-1.1,2.9-2.3,6.8-2.3c26,0,46.8-21.5,56.9-34.3c5.1-6.5,12.2-16.5,16-26.3c6.6-0.6,18.2-0.7,34.5,1c18.3,1.9,36.5-4.5,50-17.5c13.2-12.6,20.4-30.2,19.3-46.9c-0.6-9.8-9.2-17.2-19-16.7c-4.8,0.3-9,2.5-12,5.8l-112.4-1.1L371.6,259z M144.3,305.4c2.1-12.2,8.4-22,17.9-27.6c9.5-5.7,21.1-6.5,33.3-2.4l90.2,26.3l-36.5,31.6l-35.5-0.3c-19.8-1-36.5,5.9-47,19.3c-10.5,13.4-13.1,31.2-7.3,50.3l4.6,15.1L127.3,406L144.3,305.4z M40,434.4c-3.4-10.3-3.2-18.8,0.6-22.6c3.8-3.8,12.2-4.2,22.6-0.9l109.2,34.3l25.3,83.8l-6.2-7.4c-25.2-29.8-67.7-37.7-94.7-17.6l-26.9,20L40,434.4z"/><rect x="103.8" y="447.2" width="30.1" height="9.9"/><rect x="267.6" y="535.1" width="30.1" height="9.9"/><rect x="484.9" y="366" width="30" height="9.9"/><rect x="356.2" y="308.4" width="30.1" height="9.9"/><rect x="593.4" y="264.1" width="30.1" height="9.9"/><rect x="722.7" y="227.5" width="30.1" height="9.9"/><rect x="698.1" y="494.8" width="30.1" height="9.9"/><rect x="737.8" y="413.6" width="30" height="9.9"/><path d="M888.3,381.6l-8.5-28.8l9.5-2.8l8.5,28.8L888.3,381.6z"/><path d="M524.4,516.6l-24.5-17.4l5.7-8.1l24.5,17.4L524.4,516.6z M715.5,340.3l24.5,17.4l-5.7,8.1l-24.5-17.4L715.5,340.3z"/></g></g><g></g><g></g><g></g><g></g><g></g><g></g><g></g><g></g><g></g><g></g><g></g><g></g><g></g><g></g><g></g></g>
</svg>