<svg id="Capa_1" enable-background="new 0 0 512.766 512.766" height="512" viewBox="0 0 512.766 512.766" width="512" xmlns="http://www.w3.org/2000/svg"><g><path d="m165.972 352.866c0 13.539 11 24.554 24.521 24.554s24.521-11.015 24.521-24.554-11-24.554-24.521-24.554-24.521 11.015-24.521 24.554zm34.043 0c0 5.268-4.271 9.554-9.521 9.554s-9.521-4.286-9.521-9.554 4.271-9.554 9.521-9.554 9.521 4.286 9.521 9.554zm-16.62-192.366c-13.521 0-24.521 11.015-24.521 24.554s11 24.554 24.521 24.554 24.521-11.015 24.521-24.554-11-24.554-24.521-24.554zm0 34.109c-5.25 0-9.521-4.286-9.521-9.554s4.271-9.554 9.521-9.554 9.521 4.286 9.521 9.554-4.271 9.554-9.521 9.554zm-8.309 112.105c13.521 0 24.521-11.015 24.521-24.554s-11-24.554-24.521-24.554-24.521 11.015-24.521 24.554 11 24.554 24.521 24.554zm0-34.108c5.25 0 9.521 4.286 9.521 9.554s-4.271 9.554-9.521 9.554-9.521-4.286-9.521-9.554 4.271-9.554 9.521-9.554zm226.955 83.42c13.521 0 24.521-11.015 24.521-24.554s-11-24.554-24.521-24.554-24.521 11.015-24.521 24.554 11 24.554 24.521 24.554zm0-34.108c5.25 0 9.521 4.286 9.521 9.554s-4.271 9.554-9.521 9.554-9.521-4.286-9.521-9.554 4.271-9.554 9.521-9.554zm-98.041 6.772c0 13.539 11 24.554 24.521 24.554s24.521-11.015 24.521-24.554-11-24.554-24.521-24.554-24.521 11.015-24.521 24.554zm34.042 0c0 5.268-4.271 9.554-9.521 9.554s-9.521-4.286-9.521-9.554 4.271-9.554 9.521-9.554 9.521 4.286 9.521 9.554zm131.447-105.973c-2.908-60.121-28.584-116.187-72.3-157.87-43.857-41.817-101.431-64.847-162.115-64.847-62.682 0-121.616 24.358-165.943 68.587-44.333 44.234-68.748 103.047-68.748 165.604 0 60.562 23.09 118.02 65.017 161.787 41.784 43.618 97.978 69.231 158.229 72.12 10.069.483 18.997-8.006 18.945-18.145v-208.262h208.791c10.124.045 18.614-8.834 18.124-18.974zm-389.763-143.512c39.722-39.634 91.979-62.207 147.849-64.065v30.183c-99.783 3.882-177.885 84.155-181.764 181.368h-30.287c1.866-55.732 24.487-107.859 64.202-147.486zm32.624 76.271c0 12.174-9.879 22.079-22.022 22.079-6.673 0-12.966-3.075-17.115-8.201 5.148-12.749 11.759-24.758 19.638-35.81 10.959 1.259 19.499 10.613 19.499 21.932zm115.224 294.477c-.076 2.068-1.206 3.259-3.227 3.163-56.398-2.704-109-26.681-148.116-67.514-37.503-39.15-58.887-90.004-60.707-143.911h30.286c3.646 97.036 82.472 177.677 181.764 181.373zm-152.094-145.581c4.828-3.638 10.658-5.602 16.827-5.602 15.516 0 28.139 12.654 28.139 28.207 0 10.186-5.525 19.502-14.14 24.47-12.669-13.835-23.126-29.715-30.826-47.075zm152.094 103.667c-42.48-1.802-81.073-18.83-110.426-45.747 11.253-7.973 18.298-21.091 18.298-35.315 0-23.824-19.352-43.207-43.139-43.207-8.071 0-15.757 2.193-22.437 6.292-5.208-15.286-8.329-31.524-9.049-48.371h166.753zm15-181.348v-87.379c0-4.142-3.358-7.5-7.5-7.5s-7.5 3.358-7.5 7.5v87.379h-166.753c.618-14.464 3.014-28.475 6.974-41.823 6.377 4.896 14.28 7.687 22.533 7.687 20.414 0 37.022-16.634 37.022-37.079 0-15.988-10.156-29.644-24.346-34.839 30.485-35.246 74.869-58.195 124.57-60.304v43.979c0 4.142 3.358 7.5 7.5 7.5s7.5-3.358 7.5-7.5v-43.979c15.681.665 30.832 3.402 45.185 7.949-4.061 5.818-6.326 12.807-6.326 20.149 0 19.418 15.774 35.216 35.163 35.216 14.324 0 26.801-8.791 32.243-21.267 35.348 30.413 58.368 74.707 60.487 124.31h-166.752zm53.86-138.26c0-5.611 2.296-10.867 6.277-14.651 11.936 5.029 23.197 11.348 33.609 18.78-1.922 9.15-10.095 16.088-19.724 16.088-11.117-.001-20.162-9.069-20.162-20.217zm-53.86-43.109v-30.181c54.04 1.811 105.02 23.145 144.263 60.563 40.916 39.013 64.948 91.48 67.669 147.738.099 2.042-1.093 3.17-3.142 3.249h-27.012c-3.911-99.609-84.564-177.64-181.778-181.369zm254.859 225.879h-87.918c-4.142 0-7.5 3.358-7.5 7.5s3.358 7.5 7.5 7.5h42.639c-2.143 50.176-25.668 94.916-61.701 125.368-5.636-15.733-20.676-27.025-38.291-27.025-22.426 0-40.671 18.273-40.671 40.735 0 8.17 2.502 16.091 6.971 22.75-10.704 2.558-21.787 4.127-33.148 4.609v-163.278c0-1.742 1.408-3.159 3.138-3.159h86.062c4.142 0 7.5-3.358 7.5-7.5s-3.358-7.5-7.5-7.5h-86.062c-10.001 0-18.138 8.146-18.138 18.159v208.442c-.049 8.266 7.097 15.229 15.382 14.956 59.651-1.965 115.783-26.272 158.054-68.444 42.274-42.175 66.646-98.185 68.624-157.712.277-8.319-6.672-15.437-14.941-15.401zm-145.27 128.343c12.862 0 23.552 9.547 25.388 21.943-13.274 9.257-27.886 16.726-43.493 22.041-4.847-4.804-7.566-11.278-7.566-18.25 0-14.189 11.516-25.734 25.671-25.734zm80.993 34.151c-39.543 39.45-92.044 62.2-147.841 64.067v-30.115c96.577-3.53 178.122-82.27 181.849-181.446h30.216c-1.876 55.666-24.682 108.046-64.224 147.494zm-104.754-246.424c0 13.539 11 24.554 24.521 24.554s24.521-11.015 24.521-24.554-11-24.554-24.521-24.554-24.521 11.015-24.521 24.554zm34.043 0c0 5.268-4.271 9.554-9.521 9.554s-9.521-4.286-9.521-9.554 4.271-9.554 9.521-9.554 9.521 4.286 9.521 9.554zm-179.05-99.84c-13.521 0-24.521 11.015-24.521 24.554s11 24.554 24.521 24.554 24.521-11.015 24.521-24.554-11-24.554-24.521-24.554zm0 34.108c-5.25 0-9.521-4.286-9.521-9.554s4.271-9.554 9.521-9.554 9.521 4.286 9.521 9.554-4.271 9.554-9.521 9.554zm97.35 38.961c-13.521 0-24.521 11.015-24.521 24.554s11 24.554 24.521 24.554 24.521-11.015 24.521-24.554-11-24.554-24.521-24.554zm0 34.109c-5.25 0-9.521-4.286-9.521-9.554s4.271-9.554 9.521-9.554 9.521 4.286 9.521 9.554-4.271 9.554-9.521 9.554z"/></g></svg>