<?xml version="1.0" encoding="iso-8859-1"?>
<!-- Generator: Adobe Illustrator 19.0.0, SVG Export Plug-In . SVG Version: 6.00 Build 0)  -->
<svg version="1.1" id="Capa_1" xmlns="http://www.w3.org/2000/svg" xmlns:xlink="http://www.w3.org/1999/xlink" x="0px" y="0px"
	 viewBox="0 0 511.999 511.999" style="enable-background:new 0 0 511.999 511.999;" xml:space="preserve">
<g>
	<g>
		<path d="M395.622,175.196L370.001,12.928C368.826,5.483,362.409,0,354.873,0H157.126c-7.536,0-13.954,5.483-15.128,12.928
			l-25.621,162.269c-6.456,40.893,5.266,82.397,32.16,113.872c23.551,27.561,56.515,44.829,92.147,48.696v143.603h-67.492
			c-8.459,0-15.316,6.857-15.316,15.316s6.857,15.316,15.316,15.316h165.616c8.459,0,15.316-6.858,15.316-15.316
			s-6.857-15.316-15.316-15.316h-67.493V337.764c35.631-3.868,68.596-21.134,92.147-48.696
			C390.357,257.594,402.078,216.089,395.622,175.196z M170.213,30.632h171.572l13.207,83.645H157.007L170.213,30.632z
			 M340.174,269.169c-21.067,24.654-51.747,38.793-84.174,38.793s-63.108-14.14-84.175-38.793
			c-21.067-24.654-30.248-57.164-25.191-89.196l5.536-35.064h207.658l5.536,35.064C370.422,212.005,361.24,244.516,340.174,269.169z
			"/>
	</g>
</g>
<g>
</g>
<g>
</g>
<g>
</g>
<g>
</g>
<g>
</g>
<g>
</g>
<g>
</g>
<g>
</g>
<g>
</g>
<g>
</g>
<g>
</g>
<g>
</g>
<g>
</g>
<g>
</g>
<g>
</g>
</svg>
